<?xml version="1.0" standalone="no"?>
<!DOCTYPE svg PUBLIC "-//W3C//DTD SVG 20010904//EN"
 "http://www.w3.org/TR/2001/REC-SVG-20010904/DTD/svg10.dtd">
<svg version="1.0" xmlns="http://www.w3.org/2000/svg"
 width="333.000000pt" height="333.000000pt" viewBox="0 0 333.000000 333.000000"
 preserveAspectRatio="xMidYMid meet">
<metadata>
Created by potrace 1.14, written by Peter Selinger 2001-2017
</metadata>
<g transform="translate(0.000000,333.000000) scale(0.100000,-0.100000)"
fill="#000000" stroke="none">
<path d="M770 2744 c-45 -20 -77 -50 -101 -96 -18 -36 -19 -70 -19 -778 l0
-742 193 4 c184 3 194 4 234 28 23 14 392 378 820 810 l777 785 -369 3 c-327
2 -374 1 -407 -14 -25 -11 -150 -134 -375 -367 l-338 -351 -3 367 -2 367 -188
0 c-144 -1 -195 -4 -222 -16z"/>
<path d="M2302 2190 c-18 -4 -48 -18 -66 -31 -40 -30 -1576 -1580 -1576 -1592
0 -5 165 -7 368 -5 313 3 372 5 403 19 22 11 160 146 375 368 l339 352 3 -366
2 -366 204 3 204 3 39 31 c59 47 81 87 88 157 3 34 5 370 3 747 l-3 685 -175
2 c-96 0 -190 -2 -208 -7z"/>
</g>
</svg>
