
<svg xmlns="http://www.w3.org/2000/svg" width="164" height="224" fill="none" viewBox="0 0 164 224">
  <path fill="#000" d="M158 179c0 8.284-6.716 15-15 15h-25V87c0-8.284 6.716-15 15-15h25v107Z"/>
  <path fill="#000" d="M68.926 189.682a15.003 15.003 0 0 1-10.813 4.604H5.663L121.255 77.353c6.436-6.51 17.151-5.788 22.654 1.527l13.845 18.402-88.829 92.4ZM5.437 44.705c0-8.285 6.716-15 15-15h25v106.999c0 8.285-6.715 15-15 15h-25v-107Z"/>
  <path fill="#000" d="M94.51 34.023a15 15 0 0 1 10.814-4.605h52.451L42.181 146.352c-6.435 6.51-17.15 5.787-22.654-1.528L5.682 126.422l88.829-92.4Z"/>
</svg>